<svg xmlns="http://www.w3.org/2000/svg" width="218" height="36" viewBox="0 0 218 36" fill="none"><path fill-rule="evenodd" clip-rule="evenodd" d="M5.1495 14.9659C5.1495 13.3587 7.08393 11.6456 11.1241 11.6456C13.8881 11.6456 16.2678 12.9737 17.3727 14.0799C17.9283 14.6342 18.5372 15.1879 19.4219 15.1879C20.9156 15.1879 21.8004 14.0215 21.8004 12.9211C21.8004 10.7057 17.9822 7.21729 11.1774 7.21729C4.76197 7.21729 0.278455 10.9277 0.278455 15.408C0.278455 25.4208 17.9283 21.935 17.9283 27.9083C17.9283 30.0134 15.2182 31.5051 11.4 31.5051C8.13488 31.5051 5.81164 30.3419 4.20763 28.6301C3.8201 28.2413 3.20994 27.7434 2.32517 27.7434C1.05479 27.7434 0 28.6879 0 30.0673C0 32.1134 4.09792 35.9874 11.3442 35.9874C17.485 35.9874 23.0727 32.8333 23.0727 27.465C23.0727 17.5092 5.1495 20.4401 5.1495 14.9659Z" fill="#00143D"/><path fill-rule="evenodd" clip-rule="evenodd" d="M32.2819 19.4995C32.7252 15.0782 36.7635 11.6456 41.41 11.6456C46.1687 11.6456 49.8753 15.7397 50.2641 19.4995H32.2819ZM41.41 7.21729C33.6665 7.21729 27.0811 13.5268 27.0811 21.5475C27.0811 29.7889 33.3893 35.9848 41.6865 35.9848C46.5004 35.9848 49.9304 34.1081 51.0378 33.4421C51.5338 33.1675 52.2004 32.3906 52.2004 31.3409C52.2004 30.0673 51.2579 29.0722 49.9304 29.0722C49.3774 29.0722 48.9347 29.2396 48.603 29.4013C47.11 30.2322 44.729 31.4513 41.6865 31.4513C36.9303 31.4513 32.9459 28.4614 32.2819 23.7629H51.9233C53.637 23.7629 55.0203 22.1012 55.0203 20.3843C55.0203 13.7462 49.3222 7.21729 41.41 7.21729Z" fill="#00143D"/><path fill-rule="evenodd" clip-rule="evenodd" d="M119.599 31.0541H105.243L120.689 12.5034C121.374 11.7021 121.724 11.1285 121.724 10.091C121.724 8.76868 120.689 7.21729 118.791 7.21729H101.281C99.7865 7.21729 98.6926 8.1938 98.6926 9.62971C98.6926 11.1285 99.7865 12.1018 101.281 12.1018H114.602L99.2687 30.5928C98.4648 31.5687 98.1748 32.0852 98.1748 33.0039C98.1748 34.6695 99.4991 35.9322 101.107 35.9322H119.599C121.09 35.9322 122.241 34.9576 122.241 33.5807C122.241 32.1442 121.09 31.0541 119.599 31.0541Z" fill="#00143D"/><path fill-rule="evenodd" clip-rule="evenodd" d="M138.842 31.4502C133.362 31.4502 129.271 26.8018 129.271 21.5483C129.271 16.293 133.531 11.812 138.842 11.812C144.205 11.812 148.353 16.293 148.353 21.5483C148.353 26.8018 144.261 31.4502 138.842 31.4502ZM138.842 7.2207C130.761 7.2207 124.404 13.527 124.404 21.5483C124.404 29.7889 130.652 35.985 138.842 35.985C146.914 35.985 153.333 29.4599 153.333 21.5483C153.333 13.5828 146.862 7.2207 138.842 7.2207Z" fill="#00143D"/><path fill-rule="evenodd" clip-rule="evenodd" d="M194.984 19.4995C195.425 15.0782 199.464 11.6456 204.108 11.6456C208.87 11.6456 212.574 15.7397 212.964 19.4995H194.984ZM217.721 20.3843C217.721 13.7462 212.021 7.21729 204.108 7.21729C196.362 7.21729 189.783 13.5268 189.783 21.5475C189.783 29.7889 196.086 35.9848 204.385 35.9848C209.201 35.9848 212.629 34.1081 213.737 33.4421C214.233 33.1675 214.898 32.3906 214.898 31.3409C214.898 30.0673 213.956 29.0722 212.629 29.0722C212.077 29.0722 211.635 29.2396 211.301 29.4013C209.809 30.2322 207.429 31.4513 204.385 31.4513C199.627 31.4513 195.647 28.4614 194.984 23.7629H214.62C216.337 23.7629 217.721 22.1012 217.721 20.3843Z" fill="#00143D"/><path fill-rule="evenodd" clip-rule="evenodd" d="M172.627 7.28182C170.577 7.08678 168.513 7.07395 166.455 7.10089C164.485 7.12591 162.485 7.06496 160.518 7.1535C160.058 7.17403 159.61 7.25424 159.191 7.45442C159.088 7.50318 158.991 7.55707 158.898 7.61482C158.479 7.86761 158.083 8.23075 157.822 8.66255C157.516 9.16621 157.517 9.63009 157.542 10.2005C157.568 10.7356 157.542 11.2816 157.539 11.8167C157.534 13.7716 157.526 15.726 157.523 17.6854C157.52 18.9333 157.508 33.3309 157.508 33.3309C157.508 34.7116 158.723 35.9878 160.16 35.9878C161.603 35.9878 162.817 34.7116 162.817 33.3309V21.0538C162.817 15.4077 166.967 11.8648 171.556 11.8648C176.15 11.8648 180.298 15.4077 180.298 21.0538V33.3309C180.298 34.7116 181.463 35.9878 182.9 35.9878C184.338 35.9878 185.609 34.7116 185.609 33.3309V21.4394C185.609 14.0944 179.78 7.96 172.627 7.28182Z" fill="#00143D"/><path fill-rule="evenodd" clip-rule="evenodd" d="M85.6669 21.8241C85.6669 27.1327 82.0714 31.4514 76.6479 31.4514C71.1154 31.4514 67.2439 26.8581 67.2439 21.5476C67.2439 16.237 71.2276 11.8113 76.6479 11.8113C81.9604 11.8113 85.6669 15.9085 85.6669 21.1613V21.8241ZM92.8516 11.1485L86.6075 7.47018C86.6203 7.38164 86.6595 7.30144 86.6595 7.21225V1.66368C86.6595 0.744259 85.9133 0 84.9951 0H81.6659C80.7458 0 80.0009 0.744259 80.0009 1.66368V3.6026L77.7361 2.27576C76.8154 1.72719 75.6047 1.81702 74.7507 2.45028C74.7366 2.45862 74.7212 2.45862 74.7083 2.4676L60.3435 10.8007C59.1456 11.5142 58.6458 13.1779 59.3875 14.4226C60.16 15.7167 61.8622 16.0644 63.0588 15.3503L63.9185 14.8531C62.899 16.8453 62.267 19.0947 62.267 21.5476C62.267 25.428 63.7575 29.2526 66.5054 32.0095C67.5885 33.0945 68.8473 34.0004 70.2255 34.6677C71.2873 35.1823 72.4075 35.6109 73.5721 35.8252C75.1145 36.1075 76.714 35.9618 78.2756 35.9669C79.9618 35.9669 81.6485 35.9689 83.334 35.9727C84.8617 35.9785 86.3881 35.9836 87.9343 35.9843C88.3199 35.9843 88.6991 35.8867 89.0437 35.7122C89.4832 35.487 89.7443 35.2426 90.033 34.8551C90.3622 34.4194 90.5912 33.892 90.5912 33.33V15.8578C91.7358 16.2723 93.1249 15.9137 93.8088 14.7716C94.5505 13.5237 94.0501 11.8619 92.8516 11.1485Z" fill="#FC605B"/></svg>
